<?xml version="1.0" standalone="no"?>
<!DOCTYPE svg PUBLIC "-//W3C//DTD SVG 20010904//EN"
 "http://www.w3.org/TR/2001/REC-SVG-20010904/DTD/svg10.dtd">
<svg version="1.0" xmlns="http://www.w3.org/2000/svg"
 width="512.000000pt" height="512.000000pt" viewBox="0 0 512.000000 512.000000"
 preserveAspectRatio="xMidYMid meet">
<metadata>
Created by potrace 1.16, written by Peter Selinger 2001-2019
</metadata>
<g transform="translate(0.000000,512.000000) scale(0.100000,-0.100000)"
fill="#000000" stroke="none">
<path d="M3170 5068 c30 -29 57 -52 59 -51 2 1 12 -7 24 -17 11 -11 24 -17 29
-14 4 3 8 -2 8 -10 0 -9 4 -16 9 -16 4 0 19 -11 32 -23 13 -13 38 -29 54 -35
17 -6 58 -22 93 -36 34 -13 60 -20 57 -15 -8 12 2 11 27 -2 16 -9 33 -7 73 6
28 10 63 15 76 12 38 -10 271 -151 365 -222 47 -36 89 -65 94 -65 16 0 19 30
4 38 -8 5 -16 16 -18 25 -2 17 -149 128 -251 189 -222 134 -625 288 -754 288
l-35 0 54 -52z"/>
<path d="M1680 4996 c-215 -95 -399 -200 -560 -322 -287 -216 -635 -693 -788
-1079 -48 -121 -102 -291 -102 -321 0 -12 13 -50 29 -84 l29 -61 17 58 c89
318 205 578 365 817 237 355 521 631 836 814 43 25 89 63 118 97 26 30 68 67
92 81 24 14 44 28 44 30 0 6 2 6 -80 -30z"/>
<path d="M2495 5013 c-75 -5 -249 -32 -340 -53 -272 -63 -543 -187 -764 -350
-52 -38 -99 -66 -104 -63 -6 3 -7 2 -4 -4 6 -9 -112 -120 -124 -116 -3 1 -24
-17 -45 -40 l-39 -42 40 35 c22 19 -6 -10 -62 -65 -198 -194 -381 -445 -493
-677 -57 -118 -114 -267 -106 -275 2 -3 12 19 21 47 9 28 19 50 21 48 2 -2
-14 -56 -36 -121 -69 -207 -115 -509 -107 -708 4 -95 10 -113 37 -104 10 3 24
0 32 -7 8 -7 24 -19 36 -26 18 -10 23 -10 26 0 3 7 7 96 10 198 15 500 162
894 486 1299 175 218 240 273 404 335 33 13 75 31 91 40 66 35 54 13 -15 -30
-322 -198 -608 -552 -757 -937 -36 -95 -94 -305 -92 -340 0 -12 9 16 20 63
121 539 474 996 1009 1309 30 17 62 36 70 41 34 20 301 121 385 144 554 157
1101 91 1580 -189 39 -23 77 -39 84 -37 9 3 11 0 6 -8 -5 -8 -4 -11 2 -7 10 6
107 -23 120 -36 3 -4 12 -7 19 -7 7 0 25 -5 41 -11 15 -6 30 -11 33 -11 3 0
16 -5 30 -10 38 -15 62 -18 58 -8 -2 5 -32 32 -68 61 -258 207 -639 388 -972
461 -91 20 -131 22 -348 23 -211 0 -261 -3 -360 -22 -296 -57 -606 -184 -872
-358 -55 -36 -97 -61 -93 -55 16 26 236 160 380 231 344 168 668 241 1005 225
74 -4 144 -9 156 -12 20 -5 22 -2 19 28 -3 42 5 89 15 83 5 -3 6 4 3 15 -7 25
-8 25 113 0 193 -40 427 -124 614 -221 63 -32 106 -52 95 -43 -11 9 -83 47
-160 85 -149 73 -413 166 -550 193 -158 31 -356 42 -550 29z m-1485 -766 c0
-2 -10 -12 -22 -23 l-23 -19 19 23 c18 21 26 27 26 19z m-60 -70 c0 -2 -12
-14 -27 -28 l-28 -24 24 28 c23 25 31 32 31 24z m-50 -60 c0 -2 -10 -12 -22
-23 l-23 -19 19 23 c18 21 26 27 26 19z m-40 -51 c0 -2 -8 -10 -17 -17 -16
-13 -17 -12 -4 4 13 16 21 21 21 13z m-30 -40 c0 -2 -8 -10 -17 -17 -16 -13
-17 -12 -4 4 13 16 21 21 21 13z m-50 -66 c-12 -16 -24 -30 -26 -30 -3 0 4 14
16 30 12 17 24 30 26 30 3 0 -4 -13 -16 -30z m-56 -82 c-24 -40 -85 -133 -91
-137 -11 -10 19 43 55 97 19 28 37 52 39 52 2 0 1 -6 -3 -12z m-157 -277 c-34
-71 -64 -128 -66 -126 -4 5 116 255 123 255 2 0 -23 -58 -57 -129z"/>
<path d="M3567 4829 c7 -7 15 -10 18 -7 3 3 -2 9 -12 12 -14 6 -15 5 -6 -5z"/>
<path d="M3780 4686 c0 -3 9 -10 20 -16 11 -6 20 -8 20 -6 0 3 -9 10 -20 16
-11 6 -20 8 -20 6z"/>
<path d="M3850 4643 c271 -193 493 -400 622 -579 241 -336 387 -678 454 -1064
24 -139 25 -595 1 -740 -42 -257 -109 -468 -222 -698 -80 -164 -116 -224 -218
-362 -322 -435 -858 -762 -1412 -859 -674 -119 -1274 25 -1837 439 -246 182
-504 498 -648 795 -244 504 -312 1104 -185 1625 5 20 3 18 -11 -7 -17 -33 -41
-42 -61 -22 -7 7 -15 -16 -27 -78 -31 -170 -37 -219 -43 -388 -6 -185 5 -341
38 -513 23 -123 92 -365 97 -340 3 15 5 15 32 0 21 -12 35 -34 51 -77 61 -170
165 -360 299 -544 41 -56 85 -117 96 -135 41 -59 269 -272 374 -348 343 -247
676 -387 1055 -443 198 -30 528 -20 754 21 92 17 125 13 157 -17 20 -19 27
-19 84 -9 109 20 239 68 407 151 177 87 166 85 235 37 15 -11 29 -4 94 41 42
29 73 48 70 43 -16 -27 80 -25 132 2 15 8 88 76 161 151 136 142 251 298 307
420 15 33 33 67 41 76 7 9 15 35 18 57 2 23 6 45 9 50 3 5 7 22 10 38 3 16 12
34 21 40 8 6 12 13 9 16 -8 9 91 200 102 197 15 -3 114 197 140 283 13 44 24
97 26 119 1 22 6 43 10 45 5 3 5 10 2 16 -4 6 0 14 7 19 12 7 14 98 14 536 l0
528 -38 120 c-58 183 -121 336 -203 490 -66 125 -79 143 -119 168 -25 15 -48
27 -50 27 -2 0 15 -30 37 -67 64 -105 172 -332 217 -456 84 -231 140 -506 147
-722 5 -151 4 -151 -35 -10 -5 17 -25 62 -46 100 -21 39 -44 80 -50 92 -7 13
-15 20 -18 16 -4 -3 -7 -4 -7 -1 0 58 -86 397 -133 529 -96 261 -266 549 -453
763 -102 117 -435 398 -518 437 -15 7 -14 5 4 -8z"/>
<path d="M2480 4629 c-202 -23 -434 -86 -635 -174 -477 -208 -830 -532 -1036
-950 -283 -577 -240 -1280 114 -1852 120 -193 292 -389 491 -560 380 -326 813
-493 1278 -493 487 0 930 155 1352 474 67 50 91 64 97 54 14 -21 13 -23 -68
-98 -379 -354 -981 -557 -1516 -512 -78 7 -182 21 -232 31 -380 82 -823 350
-1159 702 -97 101 -99 102 -57 40 116 -170 428 -444 676 -593 398 -238 858
-322 1330 -243 245 42 514 139 681 247 248 160 373 268 462 400 18 25 38 52
45 60 30 29 140 185 162 228 13 25 39 71 59 104 19 32 54 116 76 186 38 118
44 145 55 240 2 19 4 35 5 35 1 0 3 11 6 24 2 13 13 58 24 100 25 99 47 258
56 399 l7 112 56 1 56 1 -54 9 c-30 5 -56 11 -59 13 -2 2 -8 53 -13 113 -23
256 -101 528 -219 768 -216 440 -486 710 -925 925 -311 153 -604 222 -924 219
-64 -1 -150 -5 -191 -10z m810 -152 c331 -108 635 -300 849 -534 321 -351 531
-896 531 -1378 0 -288 -70 -597 -188 -831 -49 -97 -184 -293 -265 -385 -285
-324 -733 -569 -1202 -656 -115 -21 -410 -29 -531 -13 -425 53 -813 252 -1157
594 -324 320 -509 649 -593 1051 -25 117 -28 151 -28 340 -1 116 2 235 6 265
13 105 47 252 70 308 6 15 12 29 13 32 9 25 22 45 54 78 43 46 81 92 81 98 0
3 12 20 27 39 26 32 28 33 54 19 32 -16 39 -17 39 -6 0 10 -70 38 -83 34 -4
-1 0 8 9 21 l18 24 35 -24 34 -23 18 27 c12 17 15 31 9 38 -7 8 -5 12 5 12 8
0 15 -4 15 -9 0 -4 5 -7 12 -6 7 2 13 -3 14 -9 3 -23 4 -24 15 -18 7 5 5 13
-5 24 -14 15 -9 25 56 106 114 144 298 320 423 405 116 78 372 204 530 260
115 40 323 93 341 86 7 -3 16 -1 19 4 3 5 42 9 85 8 l80 -1 0 -55 c0 -67 12
-60 21 11 l6 52 2 -52 c2 -72 21 -80 21 -9 l0 56 53 0 c146 0 371 -50 561
-124 179 -70 275 -123 458 -255 66 -47 75 -57 65 -71 -7 -10 -101 -121 -210
-248 l-197 -231 -63 43 c-173 121 -448 221 -624 228 l-43 1 0 99 0 98 90 0
c95 0 120 13 45 24 -24 4 -46 10 -49 14 -2 4 16 33 40 65 38 51 44 65 44 107
0 62 -30 90 -97 90 l-44 0 2 -64 c1 -44 6 -67 15 -70 10 -4 14 5 14 32 0 47
13 67 35 58 26 -10 15 -84 -21 -140 -23 -37 -30 -42 -36 -28 -4 10 -6 2 -6
-21 1 -20 -2 -40 -5 -44 -4 -3 -7 57 -7 135 l0 142 -45 0 -45 0 0 -150 0 -150
25 0 c24 0 25 -3 25 -54 0 -29 -3 -73 -6 -98 l-6 -45 -107 -6 c-188 -10 -371
-72 -541 -182 -46 -29 -127 -100 -206 -180 -113 -114 -135 -132 -157 -128 -17
3 -32 -2 -46 -16 -39 -39 -23 -89 39 -121 22 -11 40 -23 40 -26 0 -2 -10 -24
-21 -46 -79 -155 -115 -388 -90 -579 13 -99 97 -359 116 -359 3 0 -2 17 -11
38 -38 87 -83 244 -95 327 -23 177 6 380 79 540 20 44 37 81 38 83 1 2 46 -26
100 -61 93 -61 467 -298 562 -356 38 -23 42 -30 42 -66 1 -57 21 -107 69 -169
39 -50 121 -106 156 -106 15 0 25 -31 25 -77 0 -27 -4 -32 -27 -36 -27 -4 -27
-4 4 -6 l31 -1 7 -107 c7 -126 12 -157 14 -90 1 48 8 56 29 35 13 -13 13 -14
15 58 l1 52 59 16 c33 9 57 19 55 22 -3 2 -16 1 -29 -4 -13 -5 -36 -12 -51
-16 -26 -6 -28 -4 -28 24 0 46 43 131 89 174 58 54 81 103 81 173 0 41 6 67
20 88 27 41 25 45 -15 45 -21 0 -35 5 -35 13 0 17 149 112 160 101 5 -5 18
-31 29 -59 11 -27 20 -42 20 -32 1 10 -8 37 -19 59 -11 23 -20 45 -20 49 0 7
25 24 167 116 54 35 84 49 89 41 4 -7 3 -8 -4 -4 -18 11 -15 -1 12 -47 36 -61
75 -207 82 -301 10 -147 -40 -330 -128 -466 -56 -88 -217 -246 -298 -293 -123
-71 -309 -114 -440 -101 -322 32 -561 233 -685 576 -39 106 -47 107 -11 2 47
-140 130 -273 237 -381 61 -62 92 -83 174 -123 209 -101 391 -114 602 -41 114
39 183 82 281 176 187 177 282 386 282 621 0 113 -23 219 -68 310 l-27 56 34
27 c19 15 31 33 27 39 -3 6 41 43 105 89 61 43 120 84 129 91 16 12 21 9 45
-32 38 -65 91 -218 105 -306 17 -106 20 -114 14 -38 -2 37 -14 98 -25 135 -25
81 -88 243 -102 261 -8 10 2 24 39 56 l48 43 -17 26 c-22 33 -50 34 -100 4
l-39 -24 -48 50 -47 51 155 175 c86 97 158 177 161 178 8 3 116 -134 177 -222
55 -81 75 -105 48 -57 -10 19 -57 84 -103 145 -46 62 -85 117 -88 123 -2 6 17
34 42 62 26 29 43 52 38 52 -5 0 -15 -6 -23 -12 -8 -7 1 4 19 26 72 85 66 125
-7 53 -43 -43 -72 -59 -72 -40 0 4 24 32 53 62 45 47 47 51 15 28 l-37 -27
-87 64 c-150 111 -326 207 -476 261 -43 15 -78 32 -78 37 0 5 -4 7 -9 3 -5 -3
-48 6 -95 19 -122 36 -275 56 -420 56 -69 0 -126 3 -126 8 0 4 52 6 116 4 64
-2 114 1 111 5 -3 4 15 6 39 4 37 -2 44 0 44 15 0 14 3 15 9 6 6 -10 18 -11
49 -3 34 7 42 6 42 -5 0 -20 10 -17 36 11 29 31 38 29 244 -38z m-787 -14 c-7
-2 -19 -2 -25 0 -7 3 -2 5 12 5 14 0 19 -2 13 -5z m-345 -87 c-51 -18 -101
-37 -110 -41 -11 -4 -18 -3 -18 5 0 6 4 9 8 6 5 -3 28 8 53 25 24 16 49 27 56
24 7 -2 29 2 50 9 21 7 42 11 46 9 4 -3 -34 -19 -85 -37z m-178 -71 c-14 -8
-29 -14 -35 -14 -5 0 1 6 15 14 14 8 30 14 35 14 6 0 -1 -6 -15 -14z m-290
-139 c0 -2 -25 -20 -55 -40 -30 -20 -55 -34 -55 -31 0 4 101 75 107 75 2 0 3
-2 3 -4z m-170 -120 c0 -2 -8 -10 -17 -17 -16 -13 -17 -12 -4 4 13 16 21 21
21 13z m-131 -118 c-52 -51 -133 -140 -179 -198 -78 -99 -108 -122 -117 -92
-3 6 2 12 11 12 9 0 23 12 33 28 10 15 22 30 28 34 5 4 6 8 2 8 -4 0 1 10 12
22 16 16 18 25 10 35 -9 9 -8 13 0 13 7 0 21 9 33 20 12 11 28 20 35 20 8 0
11 5 8 10 -3 6 -1 10 5 10 6 0 8 5 5 10 -3 6 0 10 9 10 8 0 16 3 18 8 2 4 35
31 75 61 39 30 69 59 66 64 -3 6 -1 7 5 3 6 -3 13 -2 17 4 3 5 9 10 13 10 4 0
-36 -42 -89 -92z m1311 -195 c0 -27 -3 -92 -7 -145 l-6 -98 -39 0 c-59 0 -184
-28 -265 -60 -112 -43 -219 -115 -322 -217 l-94 -93 -96 66 c-53 35 -107 74
-121 84 l-25 20 120 118 c235 232 411 319 735 366 14 2 46 4 73 5 l47 1 0 -47z
m147 36 c183 -25 415 -124 587 -250 8 -6 -201 -259 -214 -259 -3 0 -31 21 -62
48 -31 26 -71 55 -90 65 -32 17 -32 17 -8 0 77 -57 120 -95 114 -104 -3 -5 1
-20 8 -32 15 -23 13 -57 -2 -57 -5 0 -16 12 -23 27 l-14 27 -13 -25 c-7 -13
-29 -44 -48 -68 l-36 -44 28 -24 c32 -27 50 -26 54 4 2 11 26 44 54 73 l51 53
18 -24 c10 -13 19 -26 18 -29 0 -5 -124 -94 -341 -243 l-98 -68 -55 27 -55 26
0 123 c0 67 3 124 6 128 3 3 5 80 4 171 -1 156 0 166 18 166 34 0 174 -39 231
-65 31 -14 47 -18 37 -10 -30 23 -122 55 -208 73 l-78 17 0 142 c0 164 -13
150 117 132z m-1771 -134 c-1 -8 -5 -17 -8 -21 -5 -4 -4 16 1 34 3 9 9 -1 7
-13z m4 -50 c0 -2 -3 -10 -6 -19 -9 -24 -44 -2 -37 24 4 16 9 18 24 9 10 -5
19 -11 19 -14z m1610 -158 c0 -30 -3 -102 -7 -160 -5 -88 -9 -107 -22 -108
-13 -1 -13 -2 2 -6 15 -4 17 -17 17 -96 0 -147 -5 -161 -54 -175 -57 -16 -103
-46 -125 -83 -10 -17 -20 -27 -22 -22 -2 4 -50 39 -107 76 l-103 68 25 30 c75
88 185 157 295 184 31 7 46 14 35 14 -42 2 -153 -40 -213 -80 -33 -22 -80 -62
-105 -90 -24 -27 -47 -49 -50 -49 -3 0 -64 39 -136 86 l-129 87 28 36 c147
183 429 337 624 340 l47 1 0 -53z m892 -58 c-4 -4 -71 -53 -150 -108 l-142
-100 -16 24 c-16 24 -15 26 97 146 63 66 116 125 118 131 2 5 25 -12 52 -38
27 -27 46 -51 41 -55z m-1849 -101 c32 -23 34 -47 8 -79 -17 -21 -21 -22 -49
-10 -56 23 -75 68 -43 100 22 22 38 20 84 -11z m996 -472 c15 -8 34 -22 41
-31 13 -15 10 -21 -19 -47 -24 -21 -36 -27 -44 -19 -16 16 -25 13 -23 -6 1
-13 -6 -18 -22 -17 -33 1 -22 -16 36 -56 28 -19 47 -39 43 -43 -5 -5 -26 -11
-48 -14 -51 -7 -109 19 -128 58 -55 106 60 229 164 175z m117 -231 c-65 -99
-231 -112 -312 -22 l-29 32 30 -27 c89 -80 215 -74 290 14 34 39 46 41 21 3z"/>
<path d="M3120 4474 c0 -8 5 -12 10 -9 6 3 10 10 10 16 0 5 -4 9 -10 9 -5 0
-10 -7 -10 -16z"/>
<path d="M3230 4445 c0 -8 2 -15 4 -15 2 0 6 7 10 15 3 8 1 15 -4 15 -6 0 -10
-7 -10 -15z"/>
<path d="M2753 4400 c0 -30 2 -43 4 -27 2 15 2 39 0 55 -2 15 -4 2 -4 -28z"/>
<path d="M3345 4410 c-3 -5 -1 -10 4 -10 6 0 11 5 11 10 0 6 -2 10 -4 10 -3 0
-8 -4 -11 -10z"/>
<path d="M2801 4353 c-1 -22 -5 -22 -128 -25 l-128 -3 133 -5 c74 -3 135 -3
136 0 2 3 0 16 -5 30 -7 23 -7 24 -8 3z"/>
<path d="M3425 4360 c-3 -5 -1 -10 4 -10 6 0 11 5 11 10 0 6 -2 10 -4 10 -3 0
-8 -4 -11 -10z"/>
<path d="M2468 4313 c12 -2 32 -2 45 0 12 2 2 4 -23 4 -25 0 -35 -2 -22 -4z"/>
<path d="M2853 4313 c9 -2 23 -2 30 0 6 3 -1 5 -18 5 -16 0 -22 -2 -12 -5z"/>
<path d="M3525 4310 c-3 -5 -1 -10 4 -10 6 0 11 5 11 10 0 6 -2 10 -4 10 -3 0
-8 -4 -11 -10z"/>
<path d="M2403 4303 c9 -2 23 -2 30 0 6 3 -1 5 -18 5 -16 0 -22 -2 -12 -5z"/>
<path d="M2913 4303 c9 -2 25 -2 35 0 9 3 1 5 -18 5 -19 0 -27 -2 -17 -5z"/>
<path d="M2358 4293 c7 -3 16 -2 19 1 4 3 -2 6 -13 5 -11 0 -14 -3 -6 -6z"/>
<path d="M2501 4279 c7 -14 10 -67 7 -150 l-3 -129 30 0 30 0 4 150 3 150 -41
0 c-39 0 -41 -1 -30 -21z"/>
<path d="M2600 4150 l0 -150 25 0 25 0 0 150 0 150 -25 0 -25 0 0 -150z"/>
<path d="M2983 4293 c9 -2 23 -2 30 0 6 3 -1 5 -18 5 -16 0 -22 -2 -12 -5z"/>
<path d="M3597 4293 c-4 -3 -7 -11 -7 -17 0 -6 5 -5 12 2 6 6 9 14 7 17 -3 3
-9 2 -12 -2z"/>
<path d="M2318 4283 c7 -3 16 -2 19 1 4 3 -2 6 -13 5 -11 0 -14 -3 -6 -6z"/>
<path d="M3075 4274 c28 -7 55 -13 60 -13 17 2 -69 27 -90 27 -11 0 3 -6 30
-14z"/>
<path d="M2255 4270 c-13 -5 -14 -9 -5 -9 8 0 24 4 35 9 13 5 14 9 5 9 -8 0
-24 -4 -35 -9z"/>
<path d="M3239 4225 c52 -19 128 -50 168 -69 l74 -35 -27 -53 c-15 -29 -42
-77 -60 -106 -19 -29 -34 -56 -34 -60 0 -13 42 -34 50 -25 27 31 130 217 123
224 -27 27 -342 160 -375 159 -7 -1 29 -16 81 -35z"/>
<path d="M2140 4230 c-8 -5 -10 -10 -5 -10 6 0 17 5 25 10 8 5 11 10 5 10 -5
0 -17 -5 -25 -10z"/>
<path d="M3665 4229 c-11 -17 1 -21 15 -4 8 9 8 15 2 15 -6 0 -14 -5 -17 -11z"/>
<path d="M1833 4204 c-21 -15 -21 -16 47 -118 93 -141 104 -164 89 -182 -9
-11 3 -8 34 7 43 21 46 24 33 43 -72 112 -97 159 -93 171 4 8 1 12 -6 9 -8 -3
-22 14 -35 41 -23 48 -34 53 -69 29z"/>
<path d="M2033 4185 c-40 -18 -73 -36 -73 -39 0 -4 149 61 159 70 13 12 -23
-1 -86 -31z"/>
<path d="M3515 4210 c3 -5 2 -10 -3 -10 -6 0 -12 -6 -15 -14 -9 -23 17 -25 43
-4 20 16 21 21 9 29 -19 12 -42 11 -34 -1z"/>
<path d="M3590 4175 c0 -8 -5 -15 -11 -15 -5 0 -7 -5 -3 -12 5 -7 11 -5 21 7
16 22 17 35 3 35 -5 0 -10 -7 -10 -15z"/>
<path d="M3756 4175 c-3 -8 -1 -15 4 -15 6 0 10 7 10 15 0 8 -2 15 -4 15 -2 0
-6 -7 -10 -15z"/>
<path d="M1725 4146 c-26 -14 -36 -29 -26 -36 5 -3 46 -63 91 -135 46 -71 84
-132 86 -133 1 -2 16 4 32 14 24 14 28 20 18 30 -30 29 -107 165 -100 175 4 8
3 9 -4 5 -7 -4 -19 9 -31 32 -26 52 -41 63 -66 48z"/>
<path d="M3836 4113 c-6 -14 -5 -15 5 -6 7 7 10 15 7 18 -3 3 -9 -2 -12 -12z"/>
<path d="M3574 4068 c16 -13 68 -54 115 -91 68 -54 75 -58 31 -17 -30 27 -82
68 -115 91 -33 22 -47 30 -31 17z"/>
<path d="M3800 4019 c0 -5 5 -7 10 -4 6 3 10 8 10 11 0 2 -4 4 -10 4 -5 0 -10
-5 -10 -11z"/>
<path d="M3965 3970 c-17 -19 -16 -21 35 -77 28 -32 96 -124 151 -205 55 -82
102 -148 105 -148 7 0 2 9 -110 172 -128 187 -183 291 -130 247 16 -13 16 -12
3 9 -17 27 -31 28 -54 2z"/>
<path d="M1669 3953 c-13 -16 -12 -17 4 -4 16 13 21 21 13 21 -2 0 -10 -8 -17
-17z"/>
<path d="M1624 3918 l-19 -23 23 19 c21 18 27 26 19 26 -2 0 -12 -10 -23 -22z"/>
<path d="M4095 3912 c-5 -4 -17 -16 -25 -27 -11 -15 -7 -14 13 4 24 22 32 31
25 31 -2 0 -7 -4 -13 -8z"/>
<path d="M1501 3808 c-52 -51 -121 -127 -154 -168 -33 -41 -63 -76 -68 -78 -4
-2 -19 4 -33 13 -24 16 -46 14 -46 -5 0 -9 188 -136 217 -147 6 -2 16 4 22 15
9 16 1 24 -67 62 -42 24 -79 45 -81 46 -9 8 91 127 198 237 63 64 112 117 110
117 -2 0 -47 -42 -98 -92z"/>
<path d="M4174 3769 c-19 -22 -19 -22 3 -10 24 12 39 31 25 31 -5 0 -17 -10
-28 -21z"/>
<path d="M4200 3679 c0 -5 5 -7 10 -4 6 3 10 8 10 11 0 2 -4 4 -10 4 -5 0 -10
-5 -10 -11z"/>
<path d="M4264 3628 l-19 -21 28 18 c28 18 33 25 19 25 -5 0 -17 -10 -28 -22z"/>
<path d="M4285 3584 c-16 -14 -21 -21 -10 -15 30 14 61 40 50 41 -5 0 -23 -12
-40 -26z"/>
<path d="M1160 3552 c0 -16 25 -32 50 -32 l25 0 -30 20 c-32 21 -45 25 -45 12z"/>
<path d="M4148 3525 l-56 -35 57 -113 c32 -61 65 -130 74 -152 9 -22 14 -29
11 -15 -3 14 -27 71 -54 126 l-47 101 53 32 c33 21 51 38 48 46 -4 10 -17 6
-52 -16 -47 -29 -77 -30 -33 0 84 55 82 78 -1 26z"/>
<path d="M4305 3540 c-39 -26 -15 -26 27 0 18 11 26 20 18 20 -8 0 -28 -9 -45
-20z"/>
<path d="M4364 3519 c-3 -6 -20 -17 -38 -25 -17 -7 -25 -13 -18 -14 19 0 72
29 72 40 0 13 -7 13 -16 -1z"/>
<path d="M1147 3503 c-14 -13 -6 -22 49 -53 44 -25 59 -29 70 -19 22 18 18 23
-41 52 -59 29 -68 31 -78 20z"/>
<path d="M3998 3442 c-31 -20 -60 -41 -65 -46 -11 -12 91 45 120 66 40 32 3
18 -55 -20z"/>
<path d="M4370 3460 c-19 -10 -38 -16 -42 -14 -4 3 -5 -2 -2 -10 5 -12 11 -11
42 7 46 26 46 26 41 31 -2 2 -20 -4 -39 -14z"/>
<path d="M1013 3435 c-18 -38 -31 -41 -85 -20 -10 4 -18 3 -18 -3 0 -6 14 -13
31 -17 17 -4 33 -14 36 -22 4 -10 15 1 36 37 16 28 27 54 24 57 -4 3 -14 -11
-24 -32z"/>
<path d="M3980 3405 c-52 -30 -101 -53 -108 -50 -8 3 -10 0 -6 -7 5 -7 2 -9
-9 -5 -13 5 -12 0 5 -29 11 -19 21 -34 23 -34 5 0 188 107 208 122 18 13 18
14 0 35 l-18 22 -95 -54z"/>
<path d="M4346 3395 c4 -11 24 -69 45 -130 76 -219 115 -418 129 -650 l7 -130
1 97 c2 105 -18 269 -49 413 -24 110 -92 325 -119 380 -11 22 -17 31 -14 20z"/>
<path d="M1330 3380 c-6 -12 -10 -23 -8 -25 2 -1 27 -17 56 -35 43 -26 55 -30
67 -20 8 7 15 19 15 26 0 11 -52 44 -112 72 -4 2 -12 -6 -18 -18z"/>
<path d="M3894 3374 c-18 -14 -18 -15 4 -4 12 6 22 13 22 15 0 8 -5 6 -26 -11z"/>
<path d="M4420 3360 c-13 -8 -12 -10 3 -10 9 0 17 5 17 10 0 12 -1 12 -20 0z"/>
<path d="M1242 3231 c-53 -119 -114 -372 -111 -461 1 -14 11 36 24 110 24 139
60 264 101 359 13 30 23 56 21 58 -2 2 -18 -28 -35 -66z"/>
<path d="M871 3262 c-14 -27 -43 -144 -37 -150 3 -3 6 2 6 11 0 21 14 22 34 1
21 -20 21 -6 0 17 -11 12 -13 27 -8 54 4 22 10 32 14 25 5 -8 10 -9 14 -2 3 6
2 13 -4 17 -16 10 -12 23 8 27 16 3 16 4 0 10 -12 5 -21 1 -27 -10z"/>
<path d="M911 3219 c-6 -18 -11 -37 -10 -43 0 -6 7 7 15 28 8 22 12 41 10 43
-2 2 -9 -10 -15 -28z"/>
<path d="M4241 3175 c1 -19 18 -51 18 -35 0 8 -4 22 -9 30 -5 8 -9 11 -9 5z"/>
<path d="M4470 3170 c0 -5 7 -7 15 -4 8 4 15 8 15 10 0 2 -7 4 -15 4 -8 0 -15
-4 -15 -10z"/>
<path d="M4260 3114 c1 -19 48 -188 49 -174 1 18 -37 171 -44 178 -3 3 -5 1
-5 -4z"/>
<path d="M830 3091 c0 -5 11 -11 25 -13 17 -4 25 -1 25 8 0 8 -11 14 -25 14
-14 0 -25 -4 -25 -9z"/>
<path d="M4500 3060 c-13 -8 -12 -10 3 -10 9 0 17 5 17 10 0 12 -1 12 -20 0z"/>
<path d="M813 3020 c-9 -13 -9 -21 -2 -26 6 -3 11 -4 12 -3 1 2 8 14 15 27 16
29 -7 32 -25 2z"/>
<path d="M1886 2971 c-36 -69 -32 -78 5 -13 17 30 28 56 25 59 -2 3 -16 -18
-30 -46z"/>
<path d="M790 2940 c0 -14 44 -20 57 -7 10 9 5 12 -22 14 -19 1 -35 -2 -35 -7z"/>
<path d="M4510 2940 c0 -5 5 -10 10 -10 6 0 10 5 10 10 0 6 -4 10 -10 10 -5 0
-10 -4 -10 -10z"/>
<path d="M4311 2894 c0 -11 3 -14 6 -6 3 7 2 16 -1 19 -3 4 -6 -2 -5 -13z"/>
<path d="M770 2891 c0 -6 5 -13 10 -16 6 -3 10 1 10 9 0 9 -4 16 -10 16 -5 0
-10 -4 -10 -9z"/>
<path d="M813 2893 c9 -2 23 -2 30 0 6 3 -1 5 -18 5 -16 0 -22 -2 -12 -5z"/>
<path d="M1836 2849 c-9 -29 -16 -60 -15 -68 0 -9 9 13 19 49 10 36 17 66 15
68 -2 2 -11 -20 -19 -49z"/>
<path d="M2135 2839 c-22 -41 -45 -152 -45 -214 0 -215 132 -450 314 -559 92
-55 246 -99 246 -70 0 9 -11 14 -29 14 -55 0 -160 41 -236 91 -128 86 -213
211 -255 375 -26 100 -25 197 4 307 12 48 21 87 19 87 -1 0 -10 -14 -18 -31z"/>
<path d="M4525 2840 c-4 -6 5 -10 19 -10 14 0 26 5 26 10 0 6 -9 10 -19 10
-11 0 -23 -4 -26 -10z"/>
<path d="M3807 2687 c-4 -68 -9 -132 -12 -143 -6 -17 -5 -17 4 -2 11 17 29
268 19 268 -3 0 -8 -56 -11 -123z"/>
<path d="M778 2753 c6 -2 18 -2 25 0 6 3 1 5 -13 5 -14 0 -19 -2 -12 -5z"/>
<path d="M1814 2665 c0 -55 1 -76 3 -47 2 29 2 74 0 100 -2 26 -3 2 -3 -53z"/>
<path d="M2345 2720 c-4 -17 -5 -34 -2 -36 2 -3 7 10 11 27 8 42 0 50 -9 9z"/>
<path d="M3122 2715 c0 -16 2 -22 5 -12 2 9 2 23 0 30 -3 6 -5 -1 -5 -18z"/>
<path d="M4558 2703 c7 -3 16 -2 19 1 4 3 -2 6 -13 5 -11 0 -14 -3 -6 -6z"/>
<path d="M912 2575 c-1 -91 4 -157 17 -220 10 -49 19 -81 20 -70 0 11 -4 38
-10 60 -6 22 -14 112 -18 200 l-8 160 -1 -130z"/>
<path d="M763 2673 c9 -2 25 -2 35 0 9 3 1 5 -18 5 -19 0 -27 -2 -17 -5z"/>
<path d="M930 2655 l0 -26 133 3 c124 3 132 4 132 23 0 19 -8 20 -132 23
l-133 3 0 -26z"/>
<path d="M4080 2640 l0 -30 200 0 200 0 0 30 0 30 -200 0 -200 0 0 -30z"/>
<path d="M2342 2610 c0 -19 2 -27 5 -17 2 9 2 25 0 35 -3 9 -5 1 -5 -18z"/>
<path d="M756 2621 c-12 -4 5 -7 42 -7 34 1 62 4 62 9 0 9 -79 8 -104 -2z"/>
<path d="M3122 2585 c0 -16 2 -22 5 -12 2 9 2 23 0 30 -3 6 -5 -1 -5 -18z"/>
<path d="M4573 2603 c15 -2 39 -2 55 0 15 2 2 4 -28 4 -30 0 -43 -2 -27 -4z"/>
<path d="M744 2585 c-3 -8 -3 -19 1 -25 8 -12 115 -14 115 -1 0 5 -23 8 -51 7
-76 -2 -77 22 -2 27 l58 3 -58 2 c-42 2 -59 -2 -63 -13z"/>
<path d="M4080 2545 l0 -55 200 0 200 0 0 25 0 25 -197 3 -198 2 198 3 197 2
0 25 0 25 -200 0 -200 0 0 -55z"/>
<path d="M953 2583 c-7 -3 -13 -16 -13 -29 l0 -24 130 0 c118 0 130 2 130 18
0 16 7 17 88 10 103 -10 182 -2 182 18 0 11 -45 13 -252 12 -139 0 -259 -2
-265 -5z"/>
<path d="M1822 2545 c0 -11 3 -29 8 -40 11 -25 11 1 0 35 -6 20 -8 21 -8 5z"/>
<path d="M4568 2543 c12 -2 32 -2 45 0 12 2 2 4 -23 4 -25 0 -35 -2 -22 -4z"/>
<path d="M1161 2464 c-1 -48 29 -200 57 -289 28 -88 83 -215 93 -215 5 0 -7
34 -26 77 -55 120 -97 276 -118 438 -3 24 -4 21 -6 -11z"/>
<path d="M2370 2494 c0 -6 7 -19 16 -30 14 -18 14 -18 3 6 -14 31 -19 36 -19
24z"/>
<path d="M746 2481 c5 -5 29 -5 54 -1 l45 7 -54 2 c-33 0 -51 -3 -45 -8z"/>
<path d="M4540 2480 c0 -5 16 -10 35 -10 19 0 35 5 35 10 0 6 -16 10 -35 10
-19 0 -35 -4 -35 -10z"/>
<path d="M4481 2363 c-14 -141 -42 -284 -77 -394 -14 -45 -23 -83 -21 -86 12
-11 78 232 96 352 13 89 25 245 19 245 -2 0 -10 -53 -17 -117z"/>
<path d="M3233 2442 c-46 -129 -92 -204 -173 -282 -73 -71 -135 -104 -244
-132 -94 -25 -114 -45 -40 -41 106 6 264 100 362 216 47 55 132 206 132 234 0
19 -30 24 -37 5z"/>
<path d="M2440 2386 c14 -15 39 -37 55 -49 36 -24 26 -14 -35 39 -30 25 -37
29 -20 10z"/>
<path d="M785 2350 c-4 -6 6 -10 23 -10 27 0 31 -4 36 -37 4 -21 9 -46 12 -55
4 -13 0 -18 -13 -18 -10 0 -25 -5 -33 -11 -11 -7 -7 -9 19 -7 34 3 34 2 47
-52 7 -30 13 -56 14 -57 0 -2 -6 -3 -14 -3 -8 0 -18 -5 -22 -11 -5 -8 1 -10
19 -7 22 4 27 1 32 -24 4 -16 9 -28 11 -25 2 2 -9 55 -25 118 -16 63 -32 135
-36 162 -7 43 -9 47 -36 47 -15 0 -31 -4 -34 -10z"/>
<path d="M4520 2343 c0 -8 12 -13 30 -13 17 0 30 4 30 9 0 5 -13 11 -30 13
-20 3 -30 0 -30 -9z"/>
<path d="M2989 2333 c-13 -16 -12 -17 4 -4 16 13 21 21 13 21 -2 0 -10 -8 -17
-17z"/>
<path d="M4266 2251 c-8 -95 -69 -290 -117 -381 -63 -117 -195 -294 -293 -392
-98 -100 -242 -212 -258 -201 -6 3 -8 1 -4 -5 25 -40 -342 -190 -554 -226 -47
-8 -147 -18 -222 -22 -76 -4 -138 -11 -138 -15 0 -5 3 -9 8 -9 80 2 308 23
372 35 112 22 317 88 405 132 103 51 253 162 366 271 87 83 139 145 235 277
l21 29 71 -42 c39 -23 74 -42 79 -42 4 0 16 11 25 24 l17 24 -74 43 c-41 24
-75 47 -75 52 0 9 52 -17 107 -54 47 -33 53 -34 53 -15 0 7 -32 33 -71 56 -38
24 -68 48 -65 54 49 113 70 169 91 247 24 88 44 229 33 229 -3 0 -8 -31 -12
-69z m-20 -562 c10 -16 -8 -9 -67 27 -33 19 -59 39 -59 44 0 10 117 -57 126
-71z"/>
<path d="M2580 2290 c8 -5 24 -10 34 -10 26 0 18 6 -19 14 -22 5 -26 4 -15 -4z"/>
<path d="M4496 2151 c-6 -9 35 -24 43 -15 6 5 -18 24 -31 24 -4 0 -9 -4 -12
-9z"/>
<path d="M1473 2047 c-68 -45 -123 -87 -123 -93 0 -6 6 -17 14 -23 11 -10 39
4 140 69 l125 82 -15 24 c-9 13 -17 24 -18 23 0 0 -56 -38 -123 -82z"/>
<path d="M1656 2022 c39 -68 145 -200 208 -260 82 -77 168 -135 262 -178 104
-49 105 -41 0 12 -48 24 -113 61 -143 81 -80 53 -209 185 -272 278 -60 89 -84
118 -55 67z"/>
<path d="M4460 2005 c-10 -12 -7 -15 15 -21 28 -7 52 7 41 25 -10 16 -41 14
-56 -4z"/>
<path d="M3777 1983 c-3 -5 47 -44 112 -86 66 -43 130 -88 145 -102 l26 -24
15 22 c8 12 15 25 15 28 0 7 -256 151 -291 164 -10 4 -19 2 -22 -2z"/>
<path d="M928 1964 c-46 -24 -28 -71 20 -53 29 11 39 37 21 54 -12 11 -18 11
-41 -1z"/>
<path d="M2060 1910 c103 -97 233 -172 375 -216 48 -15 90 -19 210 -18 170 1
256 19 383 79 79 37 238 142 268 177 10 12 -8 2 -41 -23 -133 -99 -261 -165
-390 -201 -64 -17 -108 -22 -225 -22 -141 -1 -148 0 -247 35 -114 40 -221 101
-297 169 -74 66 -100 81 -36 20z"/>
<path d="M2661 1934 c-14 -31 -1 -54 31 -54 24 0 33 25 20 56 -15 31 -36 31
-51 -2z m44 -15 c10 -15 -1 -23 -20 -15 -9 3 -13 10 -10 16 8 13 22 13 30 -1z"/>
<path d="M1235 1901 c-44 -25 -88 -51 -99 -57 -17 -11 -17 -13 8 -52 l26 -41
100 67 c84 56 98 69 86 80 -12 12 -22 9 -67 -20 -82 -52 -83 -52 -75 -40 4 6
33 28 66 48 38 23 57 41 53 50 -7 19 -6 19 -98 -35z"/>
<path d="M4406 1880 c-22 -55 -20 -68 9 -82 19 -8 28 -8 40 2 23 19 18 45 -11
59 -21 9 -25 16 -20 36 10 38 0 30 -18 -15z"/>
<path d="M1275 1799 c-49 -33 -89 -65 -87 -72 5 -16 64 -107 71 -107 8 0 191
112 196 120 3 4 -5 19 -16 34 l-20 26 -57 -38 c-94 -63 -132 -84 -132 -74 0 6
40 36 89 68 84 54 89 58 79 80 -6 13 -16 24 -22 23 -6 0 -51 -28 -101 -60z"/>
<path d="M1033 1798 c-24 -16 -43 -31 -43 -34 0 -6 14 2 53 29 24 16 30 17 45
5 16 -12 16 -11 2 7 -8 11 -14 21 -15 22 0 0 -19 -12 -42 -29z"/>
<path d="M4327 1745 l-36 -74 36 -21 c19 -11 38 -19 41 -16 2 3 -9 13 -27 23
-32 19 -37 29 -22 52 7 11 14 10 40 -8 17 -12 31 -19 31 -14 0 5 -13 17 -30
26 l-30 18 21 40 c11 23 19 43 17 45 -2 2 -20 -30 -41 -71z"/>
<path d="M1068 1750 c-45 -24 -53 -36 -38 -55 11 -13 19 -11 61 13 27 15 49
30 49 35 0 12 -9 9 -56 -19 -57 -33 -68 -26 -14 10 22 14 40 28 40 31 0 7 0 7
-42 -15z"/>
<path d="M1372 1662 l-102 -66 21 -23 22 -22 96 66 c53 36 98 68 100 70 3 2
-4 12 -15 22 -19 18 -21 17 -122 -47z"/>
<path d="M1106 1666 c-21 -18 -34 -36 -29 -39 5 -3 27 12 48 33 47 48 35 52
-19 6z"/>
<path d="M1155 1620 c-15 -16 -32 -27 -37 -24 -11 7 -10 -7 2 -26 8 -13 11
-13 19 -1 5 7 13 11 19 7 5 -3 15 1 22 9 7 8 19 15 26 15 17 0 17 5 4 31 -14
26 -21 24 -55 -11z"/>
<path d="M4266 1633 c-11 -11 -6 -21 20 -38 38 -24 51 -4 15 23 -16 11 -31 18
-35 15z"/>
<path d="M4157 1476 c-3 -8 3 -22 13 -31 16 -15 22 -16 35 -5 14 12 14 15 -1
31 -20 23 -40 24 -47 5z"/>
<path d="M1250 1455 c-13 -14 -21 -25 -19 -25 3 0 20 11 39 25 19 14 27 25 19
25 -9 0 -26 -11 -39 -25z"/>
<path d="M3413 1449 c-10 -10 9 -50 87 -184 13 -22 20 -37 16 -33 -11 10 -68
-20 -61 -32 5 -8 90 34 100 50 7 11 -107 210 -120 210 -6 0 -16 -5 -22 -11z"/>
<path d="M1330 1375 c-13 -14 -19 -25 -13 -25 5 0 20 11 33 25 13 14 19 25 13
25 -5 0 -20 -11 -33 -25z"/>
<path d="M2672 1323 c3 -43 7 -122 7 -175 l1 -98 39 0 39 0 7 80 c4 44 13 123
19 175 11 87 11 95 -4 95 -9 0 -16 -8 -16 -17 1 -10 -3 -61 -9 -113 -9 -93 -9
-94 -16 -45 -4 28 -8 78 -8 113 l-1 62 -33 0 -33 0 8 -77z"/>
<path d="M2825 1225 l0 -175 30 0 30 0 -4 160 c-2 117 0 164 9 175 11 13 7 15
-26 15 l-39 0 0 -175z"/>
<path d="M4056 1351 c-10 -15 20 -45 39 -37 17 6 17 7 0 26 -20 22 -31 25 -39
11z"/>
<path d="M1724 1293 c-35 -53 -36 -57 -18 -70 10 -7 20 -13 23 -13 5 0 59 88
70 114 3 8 -17 26 -32 26 -4 0 -24 -25 -43 -57z"/>
<path d="M1412 1308 c-19 -16 -32 -32 -29 -34 3 -3 20 8 39 24 18 17 31 33 28
35 -3 3 -20 -8 -38 -25z"/>
<path d="M1810 1249 c-19 -24 -38 -47 -43 -50 -8 -5 69 -69 82 -69 9 0 60 128
53 134 -13 14 -30 3 -50 -33 -12 -21 -29 -44 -37 -51 -24 -20 -18 5 11 50 37
56 24 71 -16 19z"/>
<path d="M3946 1273 c-5 -11 1 -23 16 -35 20 -15 25 -15 37 -3 13 12 12 17 -4
35 -22 24 -41 26 -49 3z"/>
<path d="M1930 1254 c0 -12 211 -105 325 -143 113 -38 279 -72 335 -70 14 1
-14 7 -63 15 -176 28 -363 87 -519 165 -43 22 -78 37 -78 33z"/>
<path d="M1510 1215 c-13 -14 -21 -27 -18 -30 2 -3 17 9 33 25 16 17 24 30 19
30 -6 0 -21 -11 -34 -25z"/>
<path d="M3590 1115 c-85 -47 -151 -85 -146 -85 5 0 79 36 164 80 131 68 157
78 171 68 14 -12 14 -11 2 5 -7 9 -19 17 -25 17 -6 -1 -81 -39 -166 -85z"/>
<path d="M1579 1153 l-34 -36 32 22 c34 23 48 39 41 47 -2 2 -20 -13 -39 -33z"/>
<path d="M1667 1103 c-31 -42 -28 -60 4 -19 11 14 27 33 35 41 12 12 12 15 2
15 -7 -1 -25 -17 -41 -37z"/>
<path d="M1726 1071 c-28 -43 -30 -51 -18 -51 10 0 55 80 49 87 -3 3 -17 -13
-31 -36z"/>
<path d="M3640 1094 c1 -16 67 -87 78 -83 6 2 -9 24 -34 48 -24 25 -44 41 -44
35z"/>
<path d="M3745 1076 c10 -14 22 -26 27 -26 13 0 -15 43 -31 48 -9 3 -7 -5 4
-22z"/>
<path d="M1791 1020 c-17 -22 -28 -40 -23 -40 11 0 36 28 51 58 17 33 8 27
-28 -18z"/>
<path d="M3560 1041 c0 -5 5 -13 10 -16 6 -3 10 -2 10 4 0 5 -4 13 -10 16 -5
3 -10 2 -10 -4z"/>
<path d="M2120 1037 c0 -9 146 -53 254 -76 54 -12 170 -28 257 -35 87 -8 163
-17 169 -21 5 -3 10 2 10 13 0 19 -8 20 -122 21 -149 2 -293 22 -430 61 -57
16 -111 32 -120 35 -10 4 -18 5 -18 2z"/>
<path d="M3659 1023 c12 -24 31 -39 31 -25 0 5 -10 17 -21 28 -22 19 -22 19
-10 -3z"/>
<path d="M3255 984 c-64 -23 -180 -48 -330 -73 l-60 -10 65 5 c127 11 381 71
395 94 3 6 5 10 3 9 -2 -1 -34 -12 -73 -25z"/>
<path d="M1860 965 c-8 -9 -8 -15 -2 -15 12 0 26 19 19 26 -2 2 -10 -2 -17
-11z"/>
<path d="M1972 943 c-5 -16 -13 -36 -17 -45 -4 -10 -3 -18 3 -18 6 0 15 12 20
28 5 15 13 35 17 45 4 9 3 17 -3 17 -6 0 -15 -12 -20 -27z"/>
<path d="M3450 949 c7 -11 14 -19 16 -16 7 7 -7 37 -17 37 -6 0 -5 -9 1 -21z"/>
<path d="M3235 944 c-22 -8 -69 -22 -105 -31 -88 -21 -100 -36 -14 -16 72 16
200 62 174 62 -8 0 -33 -7 -55 -15z"/>
<path d="M3300 926 c0 -9 5 -16 10 -16 6 0 10 4 10 9 0 6 -4 13 -10 16 -5 3
-10 -1 -10 -9z"/>
<path d="M2166 853 c-19 -54 -18 -53 -8 -53 5 0 15 23 24 50 20 63 5 66 -16 3z"/>
<path d="M3230 890 c0 -5 5 -10 10 -10 6 0 10 5 10 10 0 6 -4 10 -10 10 -5 0
-10 -4 -10 -10z"/>
<path d="M2310 874 c0 -8 5 -12 10 -9 6 4 8 11 5 16 -9 14 -15 11 -15 -7z"/>
<path d="M2730 811 l0 -71 40 0 40 0 0 70 c0 45 -4 70 -11 70 -8 0 -10 -20 -7
-60 4 -57 3 -60 -19 -60 -21 0 -23 4 -23 54 0 30 -4 58 -10 61 -6 4 -10 -20
-10 -64z"/>
<path d="M2995 861 c-3 -5 -1 -12 5 -16 5 -3 10 1 10 9 0 18 -6 21 -15 7z"/>
<path d="M2385 851 c-3 -5 -1 -12 5 -16 5 -3 10 1 10 9 0 18 -6 21 -15 7z"/>
<path d="M3180 851 c0 -6 5 -13 10 -16 6 -3 10 1 10 9 0 9 -4 16 -10 16 -5 0
-10 -4 -10 -9z"/>
<path d="M2510 830 c0 -5 5 -10 10 -10 6 0 10 5 10 10 0 6 -4 10 -10 10 -5 0
-10 -4 -10 -10z"/>
<path d="M2663 775 c0 -33 2 -45 4 -27 2 18 2 45 0 60 -2 15 -4 0 -4 -33z"/>
<path d="M2858 790 c-2 -22 0 -40 4 -40 5 0 8 18 8 40 0 22 -2 40 -4 40 -2 0
-6 -18 -8 -40z"/>
<path d="M2730 722 c0 -4 17 -6 38 -4 58 5 62 10 10 11 -27 1 -48 -3 -48 -7z"/>
<path d="M2848 723 c6 -2 18 -2 25 0 6 3 1 5 -13 5 -14 0 -19 -2 -12 -5z"/>
<path d="M4280 4177 c11 -27 42 -74 69 -105 164 -191 321 -482 421 -780 41
-124 50 -142 56 -118 10 40 -71 275 -154 450 -101 210 -227 399 -366 551 l-46
50 20 -48z"/>
<path d="M421 3274 c0 -11 3 -14 6 -6 3 7 2 16 -1 19 -3 4 -6 -2 -5 -13z"/>
<path d="M602 3005 c0 -16 2 -22 5 -12 2 9 2 23 0 30 -3 6 -5 -1 -5 -18z"/>
<path d="M593 2925 c0 -22 2 -30 4 -17 2 12 2 30 0 40 -3 9 -5 -1 -4 -23z"/>
<path d="M583 2755 c0 -38 2 -53 4 -32 2 20 2 52 0 70 -2 17 -4 1 -4 -38z"/>
<path d="M491 2434 c0 -11 3 -14 6 -6 3 7 2 16 -1 19 -3 4 -6 -2 -5 -13z"/>
<path d="M630 1051 c0 -9 30 -24 36 -18 2 1 -6 8 -16 15 -11 7 -20 8 -20 3z"/>
<path d="M710 1040 c-8 -5 -10 -10 -5 -10 6 0 17 5 25 10 8 5 11 10 5 10 -5 0
-17 -5 -25 -10z"/>
<path d="M756 991 l-49 -49 21 -29 c64 -90 346 -335 513 -445 385 -255 770
-380 1242 -404 116 -6 137 -5 132 7 -7 19 6 36 30 42 11 2 -26 5 -83 6 -189 2
-411 34 -596 87 -119 34 -173 63 -252 134 -36 33 -71 60 -77 60 -17 0 -224
118 -322 183 -99 66 -267 195 -332 254 -45 41 -126 131 -158 176 l-20 28 -49
-50z"/>
<path d="M3960 369 c-171 -109 -408 -211 -625 -269 -164 -44 -152 -40 -137
-49 18 -11 162 -5 242 10 73 14 342 145 420 204 25 19 56 43 70 52 13 10 32
25 40 33 8 8 33 30 55 48 22 17 37 32 35 32 -3 -1 -48 -28 -100 -61z"/>
<path d="M1330 355 c0 -9 12 -20 26 -25 30 -12 117 -70 122 -82 2 -4 11 -8 20
-8 8 0 44 -16 79 -35 34 -19 74 -37 88 -39 13 -3 30 -8 37 -12 20 -12 68 -15
68 -3 0 5 -4 7 -10 4 -5 -3 -10 -2 -10 2 0 8 -131 59 -139 54 -2 -2 -7 2 -10
7 -3 5 -48 31 -100 57 -52 26 -112 58 -133 71 -30 19 -38 21 -38 9z"/>
</g>
</svg>